<svg width="250" height="30" viewBox="0 0 250 30" fill="none" xmlns="http://www.w3.org/2000/svg">
<g clip-path="url(#clip0_708_134)">
<path d="M6.947 29.6857C10.916 29.6857 13.894 27.6209 13.894 22.0638V0.871204H8.7333V22.741C8.7333 24.0106 8.45486 25.3202 6.947 25.3202C5.43914 25.3202 5.1607 24.0106 5.1607 22.741V0.871204H0V22.0662C0 27.6233 2.97796 29.6857 6.947 29.6857Z" fill="#222222"/>
<path d="M18.4199 0.793335H24.2154C29.1378 0.793335 32.3918 2.85573 32.3918 8.81165C32.3918 11.1926 31.6768 14.3688 29.3761 15.7162L32.4319 29.0533H27.2311L24.81 16.9078H23.5806V29.0533H18.4199V0.793335ZM23.5806 12.7783H24.6118C26.5161 12.7783 27.2311 10.874 27.2311 8.8494C27.2311 5.79357 26.1197 4.92048 24.3759 4.92048H23.583V12.7783H23.5806Z" fill="#222222"/>
<path d="M36.2193 0.793335H42.5693C45.7454 0.793335 49.554 2.53952 49.554 7.93619C49.554 11.1124 48.1264 13.5736 44.9502 14.2484V14.3263C48.4827 15.1593 50.1085 17.6205 50.1085 21.1931C50.1085 26.3538 46.6162 29.0509 42.8052 29.0509H36.2169V0.793335H36.2193ZM41.3776 12.3819C43.9568 12.3819 44.6316 11.1902 44.6316 8.65119C44.6316 5.43725 43.9591 4.88036 41.3776 4.92048V12.3819ZM41.3776 24.9238C44.4735 24.9238 44.9502 23.692 44.9502 20.7565C44.9502 18.1774 44.3131 16.7096 41.3776 16.7474V24.9238Z" fill="#222222"/>
<path d="M63.3442 0.793335H55.8757L52.3833 29.0533H57.3458L58.0985 22.7812H61.1237L61.8765 29.0533H66.8389L63.3442 0.793335ZM57.7682 18.654L59.394 5.15881H59.4743L60.9821 18.654H57.7682Z" fill="#222222"/>
<path d="M121.334 29.6857C125.303 29.6857 128.281 27.6209 128.281 22.0638V0.871204H123.121V22.741C123.121 24.0106 122.842 25.3202 121.334 25.3202C119.826 25.3202 119.548 24.0106 119.548 22.741V0.871204H114.387V22.0662C114.387 27.6233 117.365 29.6857 121.334 29.6857Z" fill="#222222"/>
<path d="M70.4729 0.793335H75.5156L80.2374 15.7162H80.3176V0.793335H84.4448V29.0533H80.4356L74.9186 11.9453H74.8407V29.0533H70.4729V0.793335Z" fill="#222222"/>
<path d="M103.573 0.314312C108.139 0.314312 111.114 3.84681 111.114 15.0012C111.114 26.1556 108.136 29.6857 103.573 29.6857C99.0089 29.6857 96.031 26.1532 96.031 15.0012C96.031 3.84917 99.0066 0.314312 103.573 0.314312ZM101.668 17.9768C101.668 24.0884 102.383 25.3202 103.573 25.3202C104.764 25.3202 105.477 24.0884 105.477 17.9768V12.0232C105.477 5.91156 104.762 4.67978 103.573 4.67978C102.381 4.67978 101.668 5.91156 101.668 12.0232V17.9768Z" fill="#222222"/>
<path d="M135.249 5.23668H130.806V0.871204H144.856V5.23668H140.41V29.1312H135.249V5.23668Z" fill="#222222"/>
<path d="M147.746 0.871204H159.297V5.23668H152.907V12.7783H157.629V17.3821H152.907V29.1312H147.746V0.871204Z" fill="#222222"/>
<path d="M167.884 0.871204H162.724V29.1312H167.884V0.871204Z" fill="#222222"/>
<path d="M175.19 5.23668H170.747V0.871204H184.626V5.23668H180.351V29.1312H175.19V5.23668Z" fill="#222222"/>
<path d="M191.304 5.23668H187.031V0.871204H200.911V5.23668H196.465V29.1312H191.304V5.23668Z" fill="#222222"/>
<path d="M203.971 0.871204H215.919V5.23668H209.132V12.4598H214.642V17.0659H209.132V24.7633H215.919V29.1312H203.971V0.871204Z" fill="#222222"/>
<path d="M219.562 0.871204H225.36C230.28 0.871204 233.536 2.9336 233.536 8.88952C233.536 11.2705 232.821 14.4466 230.518 15.794L233.576 29.1312H228.378L225.957 16.9857H224.725V29.1312H219.564V0.871204H219.562ZM224.723 12.8562H225.756C227.661 12.8562 228.376 10.9519 228.376 8.92727C228.376 5.87144 227.264 4.99835 225.518 4.99835H224.725V12.8562H224.723Z" fill="#222222"/>
<path d="M240.87 20.9547C240.87 22.5428 240.87 25.3202 243.093 25.3202C244.799 25.3202 245.396 23.7321 245.396 22.5806C245.396 17.5402 236.028 16.3887 236.028 8.01406C236.028 3.76658 238.329 0.314312 242.697 0.314312C247.338 0.314312 249.125 3.84681 249.247 8.92727H244.641C244.641 7.34154 244.641 4.67978 242.579 4.67978C241.347 4.67978 240.632 5.71334 240.632 7.25895C240.632 12.061 249.998 13.6892 249.998 21.9057C249.998 26.2311 247.536 29.6857 242.895 29.6857C237.378 29.6857 236.266 24.8435 236.266 20.9547H240.87Z" fill="#222222"/>
</g>
<defs>
<clipPath id="clip0_708_134">
<rect width="250" height="30" fill="white"/>
</clipPath>
</defs>
</svg>
